<svg xmlns="http://www.w3.org/2000/svg" width="207.44" height="35" viewBox="0 0 207.44 35"><rect class="svg__rect" x="0" y="0" width="115.31" height="35" fill="#31C4F3"/><rect class="svg__rect" x="113.31" y="0" width="94.13" height="35" fill="#389AD5"/><path class="svg__text" d="M15.69 22L14.22 22L14.22 13.47L16.14 13.47L18.60 20.01L21.06 13.47L22.97 13.47L22.97 22L21.49 22L21.49 19.19L21.64 15.43L19.12 22L18.06 22L15.55 15.43L15.69 19.19L15.69 22ZM28.49 22L26.95 22L30.17 13.47L31.50 13.47L34.73 22L33.18 22L32.49 20.01L29.18 20.01L28.49 22ZM30.83 15.28L29.60 18.82L32.07 18.82L30.83 15.28ZM41.14 22L38.69 22L38.69 13.47L41.21 13.47Q42.34 13.47 43.21 13.97Q44.09 14.48 44.57 15.40Q45.05 16.33 45.05 17.52L45.05 17.52L45.05 17.95Q45.05 19.16 44.57 20.08Q44.08 21.00 43.19 21.50Q42.30 22 41.14 22L41.14 22ZM40.17 14.66L40.17 20.82L41.14 20.82Q42.30 20.82 42.93 20.09Q43.55 19.36 43.56 17.99L43.56 17.99L43.56 17.52Q43.56 16.13 42.96 15.40Q42.35 14.66 41.21 14.66L41.21 14.66L40.17 14.66ZM55.09 22L49.51 22L49.51 13.47L55.05 13.47L55.05 14.66L51.00 14.66L51.00 17.02L54.50 17.02L54.50 18.19L51.00 18.19L51.00 20.82L55.09 20.82L55.09 22ZM66.65 22L64.68 13.47L66.15 13.47L67.47 19.88L69.10 13.47L70.34 13.47L71.96 19.89L73.27 13.47L74.74 13.47L72.77 22L71.35 22L69.73 15.77L68.07 22L66.65 22ZM80.38 22L78.90 22L78.90 13.47L80.38 13.47L80.38 22ZM86.87 14.66L84.23 14.66L84.23 13.47L91.00 13.47L91.00 14.66L88.34 14.66L88.34 22L86.87 22L86.87 14.66ZM96.24 22L94.75 22L94.75 13.47L96.24 13.47L96.24 17.02L100.05 17.02L100.05 13.47L101.53 13.47L101.53 22L100.05 22L100.05 18.21L96.24 18.21L96.24 22Z" fill="#FFFFFF"/><path class="svg__text" d="M129.88 22L127.50 22L127.50 13.60L131.34 13.60Q132.48 13.60 133.32 13.98Q134.16 14.35 134.62 15.06Q135.07 15.76 135.07 16.71L135.07 16.71Q135.07 17.66 134.62 18.35Q134.16 19.05 133.32 19.42Q132.48 19.80 131.34 19.80L131.34 19.80L129.88 19.80L129.88 22ZM129.88 15.47L129.88 17.93L131.20 17.93Q131.93 17.93 132.30 17.61Q132.67 17.29 132.67 16.71L132.67 16.71Q132.67 16.12 132.30 15.80Q131.93 15.47 131.20 15.47L131.20 15.47L129.88 15.47ZM141.24 22L138.82 22L142.53 13.60L144.87 13.60L148.59 22L146.12 22L145.46 20.37L141.91 20.37L141.24 22ZM143.68 15.93L142.60 18.61L144.76 18.61L143.68 15.93ZM152.15 21.24L152.15 21.24L152.93 19.49Q153.50 19.86 154.24 20.09Q154.98 20.32 155.70 20.32L155.70 20.32Q157.07 20.32 157.08 19.64L157.08 19.64Q157.08 19.28 156.69 19.11Q156.30 18.93 155.43 18.74L155.43 18.74Q154.48 18.53 153.84 18.30Q153.21 18.06 152.75 17.55Q152.30 17.03 152.30 16.16L152.30 16.16Q152.30 15.39 152.72 14.77Q153.14 14.15 153.97 13.79Q154.81 13.43 156.02 13.43L156.02 13.43Q156.84 13.43 157.65 13.62Q158.45 13.80 159.07 14.17L159.07 14.17L158.34 15.93Q157.13 15.28 156.00 15.28L156.00 15.28Q155.29 15.28 154.97 15.49Q154.65 15.70 154.65 16.04L154.65 16.04Q154.65 16.37 155.03 16.54Q155.42 16.71 156.27 16.89L156.27 16.89Q157.23 17.10 157.86 17.33Q158.49 17.56 158.95 18.07Q159.41 18.58 159.41 19.46L159.41 19.46Q159.41 20.21 158.99 20.83Q158.58 21.44 157.74 21.80Q156.89 22.17 155.69 22.17L155.69 22.17Q154.67 22.17 153.71 21.92Q152.75 21.67 152.15 21.24ZM163.56 17.80L163.56 17.80Q163.56 16.54 164.16 15.54Q164.76 14.55 165.81 13.99Q166.86 13.43 168.18 13.43L168.18 13.43Q169.33 13.43 170.26 13.84Q171.18 14.25 171.79 15.02L171.79 15.02L170.28 16.39Q169.47 15.40 168.30 15.40L168.30 15.40Q167.62 15.40 167.08 15.70Q166.55 16 166.25 16.54Q165.96 17.09 165.96 17.80L165.96 17.80Q165.96 18.51 166.25 19.05Q166.55 19.60 167.08 19.90Q167.62 20.20 168.30 20.20L168.30 20.20Q169.47 20.20 170.28 19.22L170.28 19.22L171.79 20.58Q171.19 21.35 170.26 21.76Q169.33 22.17 168.18 22.17L168.18 22.17Q166.86 22.17 165.81 21.61Q164.76 21.05 164.16 20.05Q163.56 19.06 163.56 17.80ZM177.75 22L175.32 22L179.03 13.60L181.37 13.60L185.09 22L182.62 22L181.96 20.37L178.41 20.37L177.75 22ZM180.19 15.93L179.10 18.61L181.26 18.61L180.19 15.93ZM195.63 22L189.24 22L189.24 13.60L191.62 13.60L191.62 20.11L195.63 20.11L195.63 22Z" fill="#FFFFFF" x="126.31"/></svg>